<mxfile host="Electron" modified="2024-01-06T18:49:51.452Z" agent="Mozilla/5.0 (Windows NT 10.0; Win64; x64) AppleWebKit/537.36 (KHTML, like Gecko) draw.io/22.0.2 Chrome/114.0.5735.289 Electron/25.8.4 Safari/537.36" etag="yV5LRp53dEaXJ47pCh0w" version="22.0.2" type="device">
  <diagram name="Page-1" id="e7e014a7-5840-1c2e-5031-d8a46d1fe8dd">
    <mxGraphModel dx="1381" dy="808" grid="1" gridSize="10" guides="1" tooltips="1" connect="1" arrows="1" fold="1" page="1" pageScale="1" pageWidth="1169" pageHeight="826" background="none" math="0" shadow="0">
      <root>
        <mxCell id="0" />
        <mxCell id="1" parent="0" />
        <mxCell id="2" value="Student" style="swimlane;whiteSpace=wrap" parent="1" vertex="1">
          <mxGeometry x="164.5" y="128" width="280" height="542" as="geometry" />
        </mxCell>
        <mxCell id="5" value="" style="ellipse;shape=startState;fillColor=#000000;strokeColor=#ff0000;" parent="2" vertex="1">
          <mxGeometry x="100" y="40" width="30" height="30" as="geometry" />
        </mxCell>
        <mxCell id="6" value="" style="edgeStyle=elbowEdgeStyle;elbow=horizontal;verticalAlign=bottom;endArrow=open;endSize=8;strokeColor=#FF0000;endFill=1;rounded=0" parent="2" source="5" target="7" edge="1">
          <mxGeometry x="100" y="40" as="geometry">
            <mxPoint x="115" y="110" as="targetPoint" />
          </mxGeometry>
        </mxCell>
        <mxCell id="7" value="enter username and password" style="" parent="2" vertex="1">
          <mxGeometry x="10" y="110" width="210" height="50" as="geometry" />
        </mxCell>
        <mxCell id="30" value="login successful" style="" parent="2" vertex="1">
          <mxGeometry x="85" y="365" width="110" height="50" as="geometry" />
        </mxCell>
        <mxCell id="41" value="" style="edgeStyle=elbowEdgeStyle;elbow=horizontal;entryX=0.5;entryY=0;strokeColor=#FF0000;endArrow=open;endFill=1;rounded=0;entryDx=0;entryDy=0;exitX=0.5;exitY=1;exitDx=0;exitDy=0;" parent="2" source="30" target="38" edge="1">
          <mxGeometry width="100" height="100" relative="1" as="geometry">
            <mxPoint x="135.5" y="422" as="sourcePoint" />
            <mxPoint x="150.5" y="452" as="targetPoint" />
            <Array as="points" />
          </mxGeometry>
        </mxCell>
        <mxCell id="38" value="" style="ellipse;shape=endState;fillColor=#000000;strokeColor=#ff0000" parent="2" vertex="1">
          <mxGeometry x="125" y="482" width="30" height="30" as="geometry" />
        </mxCell>
        <mxCell id="3" value="Server" style="swimlane;whiteSpace=wrap" parent="1" vertex="1">
          <mxGeometry x="444.5" y="128" width="280" height="542" as="geometry" />
        </mxCell>
        <mxCell id="16" value="validates user credentials" style="" parent="3" vertex="1">
          <mxGeometry x="40" y="159" width="160" height="50" as="geometry" />
        </mxCell>
        <mxCell id="21" value="user found" style="rhombus;fillColor=#ffffc0;strokeColor=#ff0000;fontColor=#000000;" parent="3" vertex="1">
          <mxGeometry x="50" y="252.5" width="140" height="40" as="geometry" />
        </mxCell>
        <mxCell id="23" value="yes" style="edgeStyle=elbowEdgeStyle;elbow=horizontal;align=left;verticalAlign=top;endArrow=open;endSize=8;strokeColor=#FF0000;endFill=1;rounded=0" parent="3" source="21" edge="1">
          <mxGeometry x="-0.4388" y="-14" relative="1" as="geometry">
            <mxPoint x="365.5" y="322" as="targetPoint" />
            <Array as="points">
              <mxPoint x="120" y="309" />
            </Array>
            <mxPoint as="offset" />
          </mxGeometry>
        </mxCell>
        <mxCell id="24" value="" style="endArrow=open;strokeColor=#FF0000;endFill=1;rounded=0" parent="3" source="16" target="21" edge="1">
          <mxGeometry relative="1" as="geometry" />
        </mxCell>
        <mxCell id="22" value="no" style="edgeStyle=elbowEdgeStyle;elbow=horizontal;align=left;verticalAlign=bottom;endArrow=open;endSize=8;strokeColor=#FF0000;endFill=1;rounded=0;entryX=1;entryY=0.5;entryDx=0;entryDy=0;" parent="3" edge="1" target="7">
          <mxGeometry x="-1" relative="1" as="geometry">
            <mxPoint x="-100" y="120.5" as="targetPoint" />
            <Array as="points">
              <mxPoint x="230" y="197.5" />
            </Array>
            <mxPoint x="185.5" y="270" as="sourcePoint" />
          </mxGeometry>
        </mxCell>
        <mxCell id="9v1h7fDWvJ74iW78nFjV-41" value="invalid password" style="edgeLabel;html=1;align=center;verticalAlign=middle;resizable=0;points=[];" vertex="1" connectable="0" parent="22">
          <mxGeometry x="-0.1702" y="5" relative="1" as="geometry">
            <mxPoint x="-29" y="-18" as="offset" />
          </mxGeometry>
        </mxCell>
        <mxCell id="4" value="Database" style="swimlane;whiteSpace=wrap;startSize=23;" parent="1" vertex="1">
          <mxGeometry x="724.5" y="128" width="280" height="542" as="geometry" />
        </mxCell>
        <mxCell id="33" value="update token for the user" style="" parent="4" vertex="1">
          <mxGeometry x="85" y="302" width="155" height="50" as="geometry" />
        </mxCell>
        <mxCell id="9" value="" style="endArrow=open;strokeColor=#FF0000;endFill=1;rounded=0;entryX=0;entryY=0.5;entryDx=0;entryDy=0;" parent="1" source="7" target="16" edge="1">
          <mxGeometry relative="1" as="geometry">
            <mxPoint x="282.18181818181824" y="348" as="targetPoint" />
            <Array as="points">
              <mxPoint x="280" y="310" />
            </Array>
          </mxGeometry>
        </mxCell>
        <mxCell id="37" value="" style="edgeStyle=none;strokeColor=#FF0000;endArrow=open;endFill=1;rounded=0;exitX=0.386;exitY=1.012;exitDx=0;exitDy=0;exitPerimeter=0;entryX=1;entryY=0.5;entryDx=0;entryDy=0;" parent="1" source="33" target="30" edge="1">
          <mxGeometry width="100" height="100" relative="1" as="geometry">
            <mxPoint x="694.5" y="557.5" as="sourcePoint" />
            <mxPoint x="880" y="550" as="targetPoint" />
            <Array as="points">
              <mxPoint x="870" y="520" />
            </Array>
          </mxGeometry>
        </mxCell>
      </root>
    </mxGraphModel>
  </diagram>
</mxfile>
